<!DOCTYPE svg PUBLIC "-//W3C//DTD SVG 1.1//EN" "http://www.w3.org/Graphics/SVG/1.1/DTD/svg11.dtd">
<!-- Uploaded to: SVG Repo, www.svgrepo.com, Transformed by: SVG Repo Mixer Tools -->
<svg version="1.1" id="Layer_1" xmlns="http://www.w3.org/2000/svg" xmlns:xlink="http://www.w3.org/1999/xlink" viewBox="-15.05 -15.05 531.65 531.65" xml:space="preserve" width="800px" height="800px" fill="#000000">
<g id="SVGRepo_bgCarrier" stroke-width="0"/>
<g id="SVGRepo_tracerCarrier" stroke-linecap="round" stroke-linejoin="round" stroke="#b8bbbc" stroke-width="18.055836"> <path style="fill:#ffffff;" d="M149.943,0L43.363,107.624v373.029c0,11.494,9.404,20.898,20.898,20.898H437.29 c11.494,0,20.898-9.404,20.898-20.898V20.898C458.188,9.404,448.784,0,437.29,0H149.943z"/> <path style="fill:#CDD6E0;" d="M149.943,86.727V0L43.363,107.624h86.727C141.584,107.624,149.943,98.22,149.943,86.727z"/> <rect x="246.073" y="74.188" style="fill:#84DBFF;" width="159.869" height="190.171"/> <g> <rect x="92.473" y="156.735" style="fill:#CDD6E0;" width="123.298" height="26.122"/> <rect x="92.473" y="238.237" style="fill:#CDD6E0;" width="123.298" height="26.122"/> <rect x="92.473" y="318.694" style="fill:#CDD6E0;" width="316.604" height="26.122"/> <rect x="92.473" y="400.196" style="fill:#CDD6E0;" width="316.604" height="26.122"/> </g> </g>
<g id="SVGRepo_iconCarrier"> <path style="fill:#ffffff;" d="M149.943,0L43.363,107.624v373.029c0,11.494,9.404,20.898,20.898,20.898H437.29 c11.494,0,20.898-9.404,20.898-20.898V20.898C458.188,9.404,448.784,0,437.29,0H149.943z"/> <path style="fill:#CDD6E0;" d="M149.943,86.727V0L43.363,107.624h86.727C141.584,107.624,149.943,98.22,149.943,86.727z"/> <rect x="246.073" y="74.188" style="fill:#84DBFF;" width="159.869" height="190.171"/> <g> <rect x="92.473" y="156.735" style="fill:#CDD6E0;" width="123.298" height="26.122"/> <rect x="92.473" y="238.237" style="fill:#CDD6E0;" width="123.298" height="26.122"/> <rect x="92.473" y="318.694" style="fill:#CDD6E0;" width="316.604" height="26.122"/> <rect x="92.473" y="400.196" style="fill:#CDD6E0;" width="316.604" height="26.122"/> </g> </g>
</svg>