<?xml version="1.0" encoding="UTF-8"?>
<svg width="800px" height="800px" fill="none" viewBox="0 -4 28 28" xmlns="http://www.w3.org/2000/svg">
<g clip-path="url(#e)">
<path d="m28 0h-28v20h28v-20z" fill="url(#d)"/>
<path d="m-2.4414e-4 0h28v1.3333h-28v-1.3333zm0 2.6667h28v1.3333h-28v-1.3333zm0 2.6667h28v1.3333h-28v-1.3333zm0 2.6667h28v1.3333h-28v-1.3333zm0 2.6667h28v1.3333h-28v-1.3333zm0 2.6666h28v1.3334h-28v-1.3334zm0 2.6667h28v1.3333h-28v-1.3333zm0 2.6667h28v1.3333h-28v-1.3333z" clip-rule="evenodd" fill="url(#c)" fill-rule="evenodd"/>
<path d="m12 0h-12v9.3333h12v-9.3333z" fill="url(#b)"/>
<path d="m1.9999 2.6667c-0.36819 0-0.66667-0.29848-0.66667-0.66667 0-0.36818 0.29848-0.66666 0.66667-0.66666s0.66667 0.29848 0.66667 0.66666c0 0.36819-0.29848 0.66667-0.66667 0.66667zm2.6667 0c-0.36819 0-0.66667-0.29848-0.66667-0.66667 0-0.36818 0.29848-0.66666 0.66667-0.66666 0.36818 0 0.66666 0.29848 0.66666 0.66666 0 0.36819-0.29848 0.66667-0.66666 0.66667zm2.6667 0c-0.36819 0-0.66667-0.29848-0.66667-0.66667 0-0.36818 0.29848-0.66666 0.66667-0.66666s0.66667 0.29848 0.66667 0.66666c0 0.36819-0.29848 0.66667-0.66667 0.66667zm2.6667 0c-0.36819 0-0.66667-0.29848-0.66667-0.66667 0-0.36818 0.29848-0.66666 0.66667-0.66666 0.36818 0 0.66668 0.29848 0.66668 0.66666 0 0.36819-0.2985 0.66667-0.66668 0.66667zm-6.6667 1.3333c-0.36819 0-0.66666-0.29847-0.66666-0.66666s0.29847-0.66667 0.66666-0.66667 0.66667 0.29848 0.66667 0.66667-0.29848 0.66666-0.66667 0.66666zm2.6667 0c-0.36819 0-0.66667-0.29847-0.66667-0.66666s0.29848-0.66667 0.66667-0.66667 0.66666 0.29848 0.66666 0.66667-0.29847 0.66666-0.66666 0.66666zm2.6667 0c-0.36818 0-0.66666-0.29847-0.66666-0.66666s0.29848-0.66667 0.66666-0.66667c0.36819 0 0.66667 0.29848 0.66667 0.66667s-0.29848 0.66666-0.66667 0.66666zm1.3333 1.3333c-0.36819 0-0.66667-0.29848-0.66667-0.66667s0.29848-0.66667 0.66667-0.66667c0.36818 0 0.66668 0.29848 0.66668 0.66667s-0.2985 0.66667-0.66668 0.66667zm-2.6667 0c-0.36819 0-0.66667-0.29848-0.66667-0.66667s0.29848-0.66667 0.66667-0.66667 0.66667 0.29848 0.66667 0.66667-0.29848 0.66667-0.66667 0.66667zm-2.6667 0c-0.36819 0-0.66667-0.29848-0.66667-0.66667s0.29848-0.66667 0.66667-0.66667c0.36818 0 0.66666 0.29848 0.66666 0.66667s-0.29848 0.66667-0.66666 0.66667zm-2.6667 0c-0.36819 0-0.66667-0.29848-0.66667-0.66667s0.29848-0.66667 0.66667-0.66667 0.66667 0.29848 0.66667 0.66667-0.29848 0.66667-0.66667 0.66667zm1.3333 1.3333c-0.36819 0-0.66666-0.29848-0.66666-0.66667s0.29847-0.66666 0.66666-0.66666 0.66667 0.29847 0.66667 0.66666-0.29848 0.66667-0.66667 0.66667zm2.6667 0c-0.36819 0-0.66667-0.29848-0.66667-0.66667s0.29848-0.66666 0.66667-0.66666 0.66666 0.29847 0.66666 0.66666-0.29847 0.66667-0.66666 0.66667zm2.6667 0c-0.36818 0-0.66666-0.29848-0.66666-0.66667s0.29848-0.66666 0.66666-0.66666c0.36819 0 0.66667 0.29847 0.66667 0.66666s-0.29848 0.66667-0.66667 0.66667zm1.3333 1.3333c-0.36819 0-0.66667-0.29847-0.66667-0.66666s0.29848-0.66667 0.66667-0.66667c0.36818 0 0.66668 0.29848 0.66668 0.66667s-0.2985 0.66666-0.66668 0.66666zm-2.6667 0c-0.36819 0-0.66667-0.29847-0.66667-0.66666s0.29848-0.66667 0.66667-0.66667 0.66667 0.29848 0.66667 0.66667-0.29848 0.66666-0.66667 0.66666zm-2.6667 0c-0.36819 0-0.66667-0.29847-0.66667-0.66666s0.29848-0.66667 0.66667-0.66667c0.36818 0 0.66666 0.29848 0.66666 0.66667s-0.29848 0.66666-0.66666 0.66666zm-2.6667 0c-0.36819 0-0.66667-0.29847-0.66667-0.66666s0.29848-0.66667 0.66667-0.66667 0.66667 0.29848 0.66667 0.66667-0.29848 0.66666-0.66667 0.66666z" clip-rule="evenodd" fill="url(#a)" fill-rule="evenodd"/>
</g>
<defs>
<linearGradient id="d" x1="14" x2="14" y2="20" gradientUnits="userSpaceOnUse">
<stop stop-color="#fff" offset="0"/>
<stop stop-color="#F0F0F0" offset="1"/>
</linearGradient>
<linearGradient id="c" x1="14" x2="14" y2="20" gradientUnits="userSpaceOnUse">
<stop stop-color="#D02F44" offset="0"/>
<stop stop-color="#B12537" offset="1"/>
</linearGradient>
<linearGradient id="b" x1="5.9998" x2="5.9998" y2="9.3333" gradientUnits="userSpaceOnUse">
<stop stop-color="#46467F" offset="0"/>
<stop stop-color="#3C3C6D" offset="1"/>
</linearGradient>
<linearGradient id="a" x1="5.9999" x2="5.9999" y1="1.3333" y2="8" gradientUnits="userSpaceOnUse">
<stop stop-color="#fff" offset="0"/>
<stop stop-color="#F0F0F0" offset="1"/>
</linearGradient>
<clipPath id="e">
<rect width="28" height="20" rx="2" fill="#fff"/>
</clipPath>
</defs>
</svg>
