<!DOCTYPE svg PUBLIC "-//W3C//DTD SVG 1.1//EN" "http://www.w3.org/Graphics/SVG/1.1/DTD/svg11.dtd">
<!-- Uploaded to: SVG Repo, www.svgrepo.com, Transformed by: SVG Repo Mixer Tools -->
<svg fill="#3e3f42" xmlns="http://www.w3.org/2000/svg" width="800px" height="800px" viewBox="0 0 52 52" enable-background="new 0 0 52 52" xml:space="preserve" stroke="#3e3f42">
<g id="SVGRepo_bgCarrier" stroke-width="0"/>
<g id="SVGRepo_tracerCarrier" stroke-linecap="round" stroke-linejoin="round"/>
<g id="SVGRepo_iconCarrier"> <path d="M46,8H6c-1.1,0-2,0.9-2,2v32c0,1.1,0.9,2,2,2h40c1.1,0,2-0.9,2-2V10C48,8.9,47.1,8,46,8z M44,40H8V12h36V40z "/> <path d="M21,38h-9.9c-0.6,0-1-0.4-1-1V15c0-0.6,0.4-1,1-1H21c0.6,0,1,0.4,1,1v22C22,37.6,21.6,38,21,38z"/> </g>
</svg>